.
 
http://www.scenetime.com    -   SceneTime [ We been having it ] !!!


How come you press harder on a remote control when you know the battery is dead? so you better seed to get speed ;)

        Seed back for speed


...................................NFO:.................................................[pre][img]http://i824.photobucket.com/albums/zz161/akosipalos/paranoiposter-2.png[/img]   
           
*******************************************************************************
                    Paranoia.2011.DVDRip.XviD-PRESTiGE
*******************************************************************************

-------------------------------------------------------------------------------
                              General Information
-------------------------------------------------------------------------------

TiTLE............: Paranoia.2011.DVDRip.XviD-PRESTiGE

iMDB.............: http://www.imdb.com/title/tt1911613/

GENRE............: Thriller 

LANGUAGE.........: English

FORMAT...........: AVi

SOURCE...........: DVDR-CinemaSnob MANY THANKS!!!

FiLE SiZE........: 700MB

SAMPLE iNCLUDED..: YES

SUBS.............: N/A

DURATiON.........: 1h 40mn

ENCODED by.......: [color=lime]akosipalos[/color]



ViDEO iNFO:

ID                               : 0
Format                           : MPEG-4 Visual
Format profile                   : Advanced Simple@L5
Format settings, BVOP            : Yes
Format settings, QPel            : No
Format settings, GMC             : No warppoints
Format settings, Matrix          : Custom
Codec ID                         : XVID
Codec ID/Hint                    : XviD
Duration                         : 1h 40mn
Bit rate                         : 842 Kbps
Width                            : 720 pixels
Height                           : 416 pixels
Display aspect ratio             : 16:9
Frame rate                       : 23.976 fps
Color space                      : YUV
Chroma subsampling               : 4:2:0
Bit depth                        : 8 bits
Scan type                        : Progressive
Bits/(Pixel*Frame)               : 0.117
Stream size                      : 603 MiB (86%)
Writing library                  : XviD 58


AUDiO iNFO:

ID                               : 1
Format                           : MPEG Audio
Format version                   : Version 1
Format profile                   : Layer 3
Mode                             : Joint stereo
Mode extension                   : MS Stereo
Codec ID                         : 55
Codec ID/Hint                    : MP3
Duration                         : 1h 40mn
Bit rate mode                    : Constant
Bit rate                         : 128 Kbps
Channel(s)                       : 2 channels
Sampling rate                    : 48.0 KHz
Stream size                      : 91.7 MiB (13%)
Alignment                        : Aligned on interleaves
Interleave, duration             : 83 ms (2.00 video frames)
Interleave, preload duration     : 504 ms
Writing library                  : LAME3.98r



-------------------------------------------------------------------------------
                                 PLOT:
-------------------------------------------------------------------------------

A serial killer is terrorizing a small town. Mark Bishop (Brad Jones) has just killed an intruder who attacked him in his home. Only he's not sure if he killed the real serial killer, but knows he doesn't want the attention. Mark has to get rid of the body and avoid the authorities. But he can't shake the feeling that the real killer is still out there. 

-------------------------------------------------------------------------------
                                 CAST:
-------------------------------------------------------------------------------


Brian Irving 	... 	Carl Stowers

Brad Jones 	... 	Mark Bishop

Brian Lewis 	... 	Randy

Sarah Lewis 	... 	Marisa Bishop

Jake Norvell 	... 	Bartender

Buford Stowers 	... 	John

Jillian Zurawski 	... 	Claire 


-------------------------------------------------------------------------------
                               SCREENS:
-------------------------------------------------------------------------------


[img]http://i824.photobucket.com/albums/zz161/akosipalos/paranoia1.png[/img]

[img]http://i824.photobucket.com/albums/zz161/akosipalos/paranoia2.png[/img]

[img]http://i824.photobucket.com/albums/zz161/akosipalos/paranoia3.png[/img]

[img]http://i824.photobucket.com/albums/zz161/akosipalos/paranoia4.png[/img]


-------------------------------------------------------------------------------
                             Release Notes
-------------------------------------------------------------------------------


PRESTiGE - IS LOOKING FOR?: CAMMER'S, AUDIO SUPPLIERS, SYNCER'S, RETAIL
SUPPLIER'S, SILVER'S, SCREENER'S, LINE CAPPER'S

ENCODER'S - ANYTHING AT ALL EMAIL US AT..... prestige@hushmail.me

** ** ** ** ** ** ** ** **

PRESTiGE is the level of respect at which one is regarded by others....RIzE Above Or Sink Below...


-------------------------------------------------------------------------------
                                 GREETZ:
-------------------------------------------------------------------------------


Twisted ,bigguy, Selina, 6of1, CTFX, HiTM4N, bedsy, mtyy, whitestag13, paranoid53, PA4U2C, phules, tac, BMB, Flawl3ss, smelise, fifer, akosipalos, DiLLoN, IMAGINE,"the squad" , floridajoe and To All Encoders Past And Present...


-------------------------------------------------------------------------------
Generated with Cool NFO Creator - http://fly.to/coolbeans
-------------------------------------------------------------------------------
[/pre]